PathFileType	4	(X/Y/Z)	D:\TRACE\spot_10-12-23\spot_arm_body_motion_1_8-platform.trc
DataRate	CameraRate	NumFrames	NumMarkers	Units	OrigDataRate	OrigDataStartFrame	OrigNumFrames
100.00	100.00	      54	5	mm	100.00	1751	      7000
Frame#	Time	Left_Front			Right_Front			Left_Aft			Right_Aft			Post			
		X1	Y1	Z1	X2	Y2	Z2	X3	Y3	Z3	X4	Y4	Z4	X5	Y5	Z5	

1751	17.500	-732.81128	33.73987	-645.20245	834.68054	31.82829	-620.84509	-664.27960	-3.64300	492.64737	742.88062	-8.16794	594.69989	105.65450	709.22522	-943.80176	
1752	17.510	-732.81323	34.27760	-645.11224	834.67639	32.21768	-620.73773	-664.20282	-3.81376	492.70624	742.87732	-8.32044	594.80103	92.79385	725.73572	-939.89966	
1753	17.520	-732.87378	34.65148	-645.03876	834.66113	32.69120	-620.71234	-664.20172	-3.91625	492.75696	742.79504	-8.48606	594.85205	54.81544	773.28967	-929.92871	
1754	17.530	-732.96863	34.93925	-644.97729	834.60461	32.96224	-620.67554	-664.17096	-4.26788	492.81219	742.72510	-8.79179	594.87000	54.69691	773.72546	-929.62170	
1755	17.540	-732.92615	35.08320	-644.89783	834.62140	33.05809	-620.60022	-664.17596	-4.50267	492.83218	742.72845	-9.08844	594.90222	54.58634	773.95831	-929.33978	
1756	17.550	-733.00397	35.43705	-644.80377	834.57990	33.36665	-620.55225	-664.20880	-4.80556	492.92413	742.67749	-9.40245	594.99866	54.54461	774.36871	-928.82294	
1757	17.560	-733.14447	35.90217	-644.74829	834.31018	34.02375	-620.42230	-664.41339	-4.89273	493.07529	742.55841	-9.69925	595.10797	54.20558	775.06451	-928.48523	
1758	17.570	-733.56384	36.45122	-644.69073	834.12067	34.51128	-620.25305	-664.68939	-5.08409	493.21188	742.24689	-9.98236	595.20557	53.86868	775.68524	-928.28284	
1759	17.580	-733.72729	36.85223	-644.62531	833.90161	34.69255	-620.17877	-664.87482	-5.43340	493.21750	741.87830	-10.26675	594.83124	53.67312	776.04510	-928.08545	
1760	17.590	-734.08411	36.97915	-644.52716	833.61707	34.90535	-620.15912	-665.23395	-5.73111	493.29410	741.80664	-10.53315	595.20734	53.33805	776.41821	-927.68610	
1761	17.600	-734.32465	37.12734	-644.40796	833.31592	35.24018	-620.07220	-665.53723	-5.99059	493.32822	741.53992	-10.69524	595.40521	52.87238	776.87329	-927.03229	
1762	17.610	-734.50299	37.32799	-644.30438	832.89130	35.26859	-619.98138	-665.66772	-6.00473	493.26474	741.25916	-10.90266	595.39520	52.86689	777.14709	-926.65741	
1763	17.620	-734.63989	37.65237	-644.26349	832.85577	35.71447	-619.81995	-665.90045	-6.04436	493.30258	741.05688	-11.00846	595.37872	52.59068	777.59515	-926.26172	
1764	17.630	-734.96484	37.75432	-644.17804	832.58057	35.84958	-619.77576	-666.21619	-6.16881	493.36780	740.79327	-11.24564	595.40356	52.53307	777.79895	-925.87738	
1765	17.640	-735.23743	37.80980	-644.15869	832.30316	35.92102	-619.76331	-666.62921	-6.34764	493.40912	740.46112	-11.50149	595.42371	52.21511	778.04504	-925.35553	
1766	17.650	-735.55536	37.87009	-644.07635	831.89081	36.13518	-619.69354	-667.03436	-6.55482	493.47565	740.11908	-11.64464	595.49634	51.84643	778.17694	-924.92017	
1767	17.660	-736.03088	38.15575	-644.03375	831.51129	36.36920	-619.58875	-667.38190	-6.63583	493.57422	739.60498	-11.81180	595.15137	51.36514	778.56549	-924.67706	
1768	17.670	-736.36237	38.44265	-644.07074	831.19659	36.64685	-619.54547	-667.57037	-6.73446	493.64618	739.28510	-11.88671	595.60022	51.08451	779.03918	-924.52307	
1769	17.680	-736.90729	38.99502	-643.99213	830.71448	36.95542	-619.56744	-667.90247	-6.84023	493.71994	738.85596	-12.12138	595.61707	50.67060	779.48572	-924.38696	
1770	17.690	-737.38678	39.35110	-643.93872	830.19360	37.19931	-619.57806	-668.48865	-7.04961	493.75150	738.49408	-12.33928	595.69025	49.99520	779.87665	-924.17090	
1771	17.700	-737.77985	39.46474	-643.87842	829.79376	37.33715	-619.48944	-668.92432	-7.30228	493.79504	738.09448	-12.61995	595.79901	102.41504	715.30115	-937.68396	
1772	17.710	-738.15460	39.59032	-643.84503	829.43604	37.46152	-619.40051	-669.30133	-7.50064	493.84720	737.59949	-12.84723	595.89453	49.49955	780.03278	-923.76807	
1773	17.720	-738.56702	39.83273	-643.77008	829.00183	37.64199	-619.36053	-669.62561	-7.60517	493.84384	737.16943	-12.98112	595.92505	48.93848	780.57916	-923.70892	
1774	17.730	-738.95410	40.04179	-643.70074	828.47729	37.90770	-619.39355	-670.09229	-7.69355	493.86850	736.66949	-13.06862	595.83807	48.35536	780.90894	-923.47845	
1775	17.740	-739.47888	40.33749	-643.57977	827.91949	38.28358	-619.37097	-670.67145	-7.76002	493.84225	736.06903	-13.19101	595.36566	47.73892	781.12543	-923.03009	
1776	17.750	-739.80841	40.49741	-643.62256	827.44879	38.41963	-619.34290	-671.26593	-7.94788	493.91031	735.73322	-13.29973	595.73047	47.37110	781.28107	-922.78369	
1777	17.760	-740.26813	40.29672	-643.60333	826.99927	38.36869	-619.29950	-671.77557	-7.99712	493.83810	735.24829	-13.32244	595.77094	46.82098	781.49475	-922.47870	
1778	17.770	-741.03711	40.48483	-643.64087	826.56409	38.40649	-619.23480	-672.08868	-8.11674	493.84573	734.80432	-13.39848	595.85413	46.38300	781.58459	-922.10474	
1779	17.780	-741.60870	40.72366	-643.64795	826.17053	38.52986	-619.16077	-672.61169	-8.20398	493.85492	734.27856	-13.48393	595.86499	45.97523	781.75189	-921.76941	
1780	17.790	-742.00458	40.79773	-643.57074	825.62622	38.72312	-619.07947	-673.22058	-8.27409	493.93652	733.71814	-13.60884	595.91443	45.55924	781.99811	-921.58954	
1781	17.800	-742.59943	40.97950	-643.41876	824.98553	38.83665	-619.06299	-673.73816	-8.39434	493.96579	733.16180	-13.84513	595.90747	45.13126	782.12207	-921.48761	
1782	17.810	-743.08990	41.06380	-643.37994	824.46399	38.99895	-619.01837	-674.29553	-8.49483	493.99542	732.59271	-13.91223	595.51263	44.55203	782.39709	-921.35327	
1783	17.820	-743.52356	41.11386	-643.38196	823.94592	39.16528	-618.96942	-674.90778	-8.68546	493.98050	731.92230	-14.14276	595.52563	43.84726	782.73737	-921.41437	
1784	17.830	-744.26575	41.39028	-643.44647	823.37854	39.38946	-618.94257	-675.38635	-8.80759	494.06445	731.50665	-14.23602	595.97247	42.96986	783.10229	-921.20502	
1785	17.840	-744.83313	41.50801	-643.40363	822.73010	39.57091	-618.94104	-675.99268	-8.81948	494.08041	730.83215	-14.41021	595.99927	42.57631	783.26141	-921.03809	
1786	17.850	-745.49286	41.71162	-643.24005	822.08240	39.67698	-618.95514	-676.67950	-8.93321	494.05374	730.21979	-14.58697	596.05798	41.89183	783.56415	-920.92969	
1787	17.860	-746.21118	41.83388	-643.14099	821.40363	39.82125	-618.94739	-677.18475	-9.00023	494.10150	729.66986	-14.67142	596.07190	41.39861	783.64233	-920.85272	
1788	17.870	-746.60059	41.71744	-643.17328	820.90057	39.88015	-618.89929	-677.72168	-9.11430	494.16995	729.01196	-14.74114	596.12592	40.66582	783.70428	-920.56012	
1789	17.880	-747.15289	41.75986	-643.22278	820.28693	39.98764	-618.85956	-678.52338	-9.07378	494.11111	728.41174	-14.70933	596.23279	40.06027	783.80267	-920.20459	
1790	17.890	-747.90930	41.85076	-643.21997	819.57550	39.94069	-618.86151	-679.28198	-9.02611	494.15863	727.79083	-14.77631	596.18512	39.40985	783.86646	-919.88312	
1791	17.900	-748.70099	41.97203	-643.29498	818.86011	39.91499	-618.85193	-679.89374	-9.03470	494.24783	727.16016	-14.76470	596.16553	63.07178	830.15332	-929.47217	
1792	17.910	-749.34180	42.01449	-643.19855	818.19666	39.87011	-618.82922	-680.46277	-9.09792	494.15326	726.35223	-14.75104	596.15356	56.26721	818.35303	-926.84436	
1793	17.920	-749.98224	41.92604	-643.21625	817.48053	39.92849	-618.74780	-681.37842	-9.12243	494.11282	725.67999	-14.82940	596.18848	37.35819	783.83197	-919.53680	
1794	17.930	-750.43884	41.78747	-643.12457	816.60236	39.77222	-618.79156	-682.06165	-9.01388	494.13245	724.96521	-14.88260	596.23090	36.45287	783.93018	-919.69830	
1795	17.940	-751.40887	42.01557	-643.15344	815.88184	39.77766	-618.93188	-682.57599	-9.26156	494.19339	724.20343	-14.96282	596.29321	35.99088	783.97675	-919.78644	
1796	17.950	-752.12207	42.17834	-643.39087	815.36914	40.13988	-618.87531	-683.22876	-9.29531	494.07693	723.57788	-15.04208	596.23914	35.57269	784.08075	-919.92151	
1797	17.960	-752.97467	42.36301	-643.12970	814.65576	40.24839	-618.85535	-684.10419	-9.32938	494.15176	722.81531	-15.18020	596.12793	34.78094	784.18481	-920.14832	
1798	17.970	-753.60699	42.34304	-643.10413	813.84332	40.45226	-618.82196	-684.75702	-9.39775	494.17245	721.98151	-15.15849	595.66559	34.00694	784.26886	-920.15356	
1799	17.980	-754.26807	42.39871	-643.02228	813.13385	40.59732	-618.77081	-685.61456	-9.54008	494.28366	721.34479	-15.16197	596.08905	33.18755	784.39697	-920.44806	
1800	17.990	-755.04578	42.39439	-643.15405	812.47906	40.52724	-618.82806	-686.30402	-9.53040	494.19055	720.54797	-15.21006	596.08704	32.28997	784.54010	-920.16394	
1801	18.000	-755.80231	42.41040	-643.26190	811.68585	40.51227	-618.69891	-687.07367	-9.48214	494.26831	719.89160	-15.36522	596.18121	31.48163	784.60052	-920.08752	
1802	18.010	-756.77325	42.52447	-643.24078	810.94354	40.42058	-618.72528	-687.82617	-9.45074	494.17978	719.08527	-15.19355	596.08276	30.97868	784.60333	-919.93066	
1803	18.020	-757.41919	42.48803	-643.09186	810.01837	40.43099	-618.75818	-688.69324	-9.39276	494.14713	718.15039	-15.23433	596.05286	30.19711	784.51923	-919.59924	
1804	18.030	-758.20715	42.45152	-643.10046	809.24298	40.44808	-618.71783	-689.49652	-9.34211	494.09930	717.36139	-15.18515	596.08362	29.03223	784.44525	-919.25739	
